<?xml version="1.0" encoding="UTF-8"?>
<svg width="75px" height="75px" viewBox="0 0 75 75" version="1.1" xmlns="http://www.w3.org/2000/svg" xmlns:xlink="http://www.w3.org/1999/xlink">
    <!-- Generator: Sketch 52.2 (67145) - http://www.bohemiancoding.com/sketch -->
    <title>cloud-icon</title>
    <desc>Created with Sketch.</desc>
    <defs>
        <linearGradient x1="5.26431075%" y1="0%" x2="109.437062%" y2="104.734959%" id="linearGradient-1">
            <stop stop-color="#2EBF91" offset="0%"></stop>
            <stop stop-color="#8360C3" offset="100%"></stop>
        </linearGradient>
    </defs>
    <g id="Page-1" stroke="none" stroke-width="1" fill="none" fill-rule="evenodd">
        <g id="Branding-Copy-11" transform="translate(-552.000000, -2171.000000)">
            <g id="Group-3" transform="translate(146.000000, 2078.000000)">
                <g id="Group-2">
                    <g id="cloud-icon" transform="translate(406.000000, 93.000000)">
                        <rect id="Rectangle" fill="#FFFFFF" x="0" y="0" width="75" height="75" rx="10"></rect>
                        <g id="ms-home-tech-icon" transform="translate(7.000000, 15.000000)" fill="url(#linearGradient-1)">
                            <g id="noun_Cloud_2627304">
                                <path d="M51.5730337,14.6442121 C56.6292135,16.3296053 60,21.0487065 60,26.2734256 C60,32.8464593 54.4382022,38.2397177 47.8651685,38.2397177 L12.1348315,38.2397177 C5.39325843,38.2397177 0,32.8464593 0,26.2734256 C0,20.0374705 4.5505618,14.8127514 10.7865169,14.1385941 C11.4606742,9.92511096 14.1573034,6.55432445 18.0337079,5.03747051 C21.741573,3.52061658 25.9550562,3.85769523 29.1573034,6.04870647 C32.1910112,0.486908715 38.4269663,-1.19848454 43.988764,0.823987367 C49.7191011,3.0149986 53.0898876,8.57679636 51.5730337,14.6442121 Z M49.5505618,17.172302 C48.7078652,17.0037626 48.2022472,15.9925267 48.3707865,15.1498301 C50.3932584,10.0936503 48.0337079,5.37454916 42.9775281,3.52061658 C38.0898876,1.666684 33.2022472,3.52061658 31.1797753,8.57679636 C30.8426966,9.58803231 29.6629213,9.92511096 28.8202247,9.25095366 C26.1235955,6.8914031 22.4157303,6.21724579 19.2134831,7.5655604 C15.8426966,8.91387501 13.6516854,11.9475829 13.4831461,15.4869087 C13.4831461,16.3296053 12.8089888,17.0037626 11.9662921,17.0037626 C6.91011236,17.0037626 2.86516854,21.0487065 2.86516854,26.2734256 C2.86516854,31.3296053 7.07865169,35.5430885 12.1348315,35.5430885 L47.8651685,35.5430885 C52.9213483,35.5430885 57.1348315,31.3296053 57.1348315,26.2734256 C57.1348315,21.7228638 53.9325843,18.0149986 49.5505618,17.172302 Z M17.5,41 L48.5,41 C49.3284271,41 50,41.6715729 50,42.5 C50,43.3284271 49.3284271,44 48.5,44 L17.5,44 C16.6715729,44 16,43.3284271 16,42.5 C16,41.6715729 16.6715729,41 17.5,41 Z" id="Combined-Shape"></path>
                            </g>
                        </g>
                    </g>
                </g>
            </g>
        </g>
    </g>
</svg>