<?xml version="1.0" encoding="UTF-8"?>
<svg width="75px" height="75px" viewBox="0 0 75 75" version="1.1" xmlns="http://www.w3.org/2000/svg" xmlns:xlink="http://www.w3.org/1999/xlink">
    <!-- Generator: Sketch 52.2 (67145) - http://www.bohemiancoding.com/sketch -->
    <title>design-icon</title>
    <desc>Created with Sketch.</desc>
    <defs>
        <linearGradient x1="5.26431075%" y1="0%" x2="109.437062%" y2="104.734959%" id="linearGradient-1">
            <stop stop-color="#2EBF91" offset="0%"></stop>
            <stop stop-color="#8360C3" offset="100%"></stop>
        </linearGradient>
    </defs>
    <g id="Page-1" stroke="none" stroke-width="1" fill="none" fill-rule="evenodd">
        <g id="Branding-Copy-11" transform="translate(-146.000000, -2078.000000)">
            <g id="Group-3" transform="translate(146.000000, 2078.000000)">
                <g id="Group-2">
                    <g id="design-icon">
                        <rect id="Rectangle" fill="#FFFFFF" x="0" y="0" width="75" height="75" rx="10"></rect>
                        <path d="M27.09875,36.9706249 L25.8293751,38.2381249 L8,20.410625 L20.410625,8 L38.23625,25.8256249 L36.9668751,27.095 L20.410625,10.53875 L10.53875,20.410625 L13.521875,23.3918749 L16.7,20.21375 L17.969375,21.4831249 L14.79125,24.6631249 L18.24875,28.11875 L23.1856251,23.1856249 L24.455,24.455 L19.518125,29.39 L22.9756251,32.8456249 L26.1556251,29.6675 L27.4231249,30.9368751 L24.245,34.1168749 L27.09875,36.9706249 Z M50.1706249,37.76 L68,55.5893749 L55.5893749,68 L37.76375,50.1743749 L39.0331249,48.905 L41.885,51.755 L45.0631249,48.5768749 L46.3325,49.8443749 L43.1543749,53.0243751 L46.61,56.4818751 L51.545,51.545 L52.8143749,52.8143751 L47.88125,57.75125 L51.3368749,61.20875 L54.5168749,58.0306251 L55.78625,59.3 L52.6081249,62.4781249 L55.5893749,65.46125 L65.46125,55.5893749 L48.8993749,39.0293751 L50.1706249,37.76 Z M64.7581249,19.000625 L23.69375,60.0631249 C23.615,60.14375 23.5193749,60.20375 23.42,60.2468749 L23.4218749,60.2506249 L11.815625,65.3675 C11.699375,65.42 11.575625,65.4443749 11.45375,65.4443749 C11.22125,65.4443749 10.9925,65.3543749 10.82,65.1818749 C10.5575,64.9193749 10.4825,64.52375 10.6325,64.1843749 L15.749375,52.5781249 L15.771875,52.5875 C15.816875,52.4881249 15.85625,52.385 15.935,52.30625 L57.00125,11.24375 C58.2068749,10.038125 60.3068749,10.03625 61.5143749,11.24375 L64.7581249,14.4875 C66.00125,15.730625 66.0031249,17.755625 64.7581249,19.000625 Z M58.26875,12.51125 L55.25375,15.52625 L60.47375,20.74625 L63.48875,17.73125 C64.0325,17.1875 64.0325,16.300625 63.48875,15.756875 L60.2431249,12.51125 C59.7143749,11.984375 58.7975,11.988125 58.26875,12.51125 Z M19.7075,59.92625 L21.9856249,58.9231249 L20.91125,55.0906249 L17.07875,54.01625 L16.07375,56.2925 L19.7075,59.92625 Z M15.2975,58.055 L13.20875,62.7931249 L17.946875,60.7043749 L15.2975,58.055 Z M22.5031249,54.1193749 L23.51,57.71 L59.2043749,22.0175 L53.9843749,16.795625 L18.288125,52.49 L21.8806249,53.4968749 C22.1825,53.58125 22.41875,53.8175 22.5031249,54.1193749 Z M23.9437818,50.7846583 L53.6512625,21.0771776 L54.9213908,22.3473059 L25.2139101,52.0547866 L23.9437818,50.7846583 Z" id="Combined-Shape" fill="url(#linearGradient-1)"></path>
                    </g>
                </g>
            </g>
        </g>
    </g>
</svg>