<?xml version="1.0" encoding="UTF-8"?>
<svg width="75px" height="75px" viewBox="0 0 75 75" version="1.1" xmlns="http://www.w3.org/2000/svg" xmlns:xlink="http://www.w3.org/1999/xlink">
    <!-- Generator: Sketch 52.2 (67145) - http://www.bohemiancoding.com/sketch -->
    <title>js-icon</title>
    <desc>Created with Sketch.</desc>
    <defs>
        <linearGradient x1="5.26431075%" y1="0%" x2="109.437062%" y2="104.734959%" id="linearGradient-1">
            <stop stop-color="#2EBF91" offset="0%"></stop>
            <stop stop-color="#8360C3" offset="100%"></stop>
        </linearGradient>
    </defs>
    <g id="Page-1" stroke="none" stroke-width="1" fill="none" fill-rule="evenodd">
        <g id="Branding-Copy-11" transform="translate(-472.000000, -2091.000000)">
            <g id="Group-3" transform="translate(146.000000, 2078.000000)">
                <g id="Group-2">
                    <g id="js-icon" transform="translate(326.000000, 13.000000)">
                        <rect id="Rectangle" fill="#FFFFFF" x="0" y="0" width="75" height="75" rx="10"></rect>
                        <path d="M34.773,55.216 C34.6703328,54.8933317 34.6959992,54.5816682 34.85,54.281 C35.0040008,53.9803318 35.2386651,53.7823338 35.554,53.687 C35.8693349,53.5916662 36.1773318,53.6173326 36.478,53.764 C36.7786682,53.9106674 36.9803328,54.1453317 37.083,54.468 C37.2883344,55.0840031 37.6549974,55.5863314 38.183,55.975 C38.7110026,56.3636686 39.3489963,56.558 40.097,56.558 C40.8450037,56.558 41.515997,56.261003 42.11,55.667 C42.704003,55.072997 43.001,54.3653374 43.001,53.544 L43.001,44.81 C43.001,44.472665 43.1219988,44.1866678 43.364,43.952 C43.6060012,43.7173322 43.895665,43.6 44.233,43.6 C44.570335,43.6 44.8563322,43.7173322 45.091,43.952 C45.3256678,44.1866678 45.443,44.472665 45.443,44.81 L45.443,53.544 C45.443,55.0546742 44.907672,56.3416613 43.837,57.405 C42.766328,58.4683387 41.4756742,59 39.965,59 C38.7623273,59 37.6843381,58.6480035 36.731,57.944 C35.7776619,57.2399965 35.1250018,56.3306722 34.773,55.216 Z M58.005,54.314 C58.005,53.1993278 56.7143462,52.4000024 54.133,51.916 L54.089,51.916 C52.9449943,51.6959989 51.9550042,51.388002 51.119,50.992 C50.2829958,50.595998 49.6706686,50.0863365 49.282,49.463 C48.8933314,48.8396635 48.699,48.1980033 48.699,47.538 C48.699,46.2619936 49.2599944,45.2133374 50.382,44.392 C51.5040056,43.5706626 52.798326,43.16 54.265,43.16 C54.9103366,43.16 55.57033,43.2699989 56.245,43.49 C56.91967,43.7100011 57.4219984,43.9153324 57.752,44.106 C58.0820017,44.2966676 58.5183306,44.5679982 59.061,44.92 C59.3103346,45.0960009 59.4679997,45.3379985 59.534,45.646 C59.6000003,45.9540015 59.5486675,46.236332 59.38,46.493 C59.2113325,46.749668 58.9730015,46.9109997 58.665,46.977 C58.3569985,47.0430003 58.0710013,46.9880009 57.807,46.812 C57.1176632,46.3426643 56.505336,45.9906678 55.97,45.756 C55.434664,45.5213322 54.8663363,45.404 54.265,45.404 C53.2969952,45.404 52.5050031,45.6313311 51.889,46.086 C51.2729969,46.5406689 50.965,47.0246641 50.965,47.538 C50.965,47.7873346 51.0236661,47.9999991 51.141,48.176 C51.5516687,48.85067 52.658991,49.356665 54.463,49.694 L54.507,49.694 C55.7390062,49.9433346 56.750996,50.2513315 57.543,50.618 C59.3616758,51.5126711 60.271,52.7446588 60.271,54.314 C60.271,55.6780068 59.6696727,56.796329 58.467,57.669 C57.2643273,58.541671 55.8783412,58.978 54.309,58.978 C52.3876571,58.9633333 50.5103425,58.2300073 48.677,56.778 C48.4423322,56.5873324 48.3066669,56.3306683 48.27,56.008 C48.2333332,55.6853317 48.3103324,55.4066678 48.501,55.172 C48.6916676,54.9373322 48.9483317,54.8016668 49.271,54.765 C49.5936683,54.7283331 49.8723322,54.8126656 50.107,55.018 C51.515007,56.1620057 52.9156597,56.7266667 54.309,56.712 C55.4090055,56.712 56.2999966,56.4590025 56.982,55.953 C57.6640034,55.4469975 58.005,54.9006696 58.005,54.314 Z M16,8 L60,8 C64.418278,8 68,11.581722 68,16 L68,60 C68,64.418278 64.418278,68 60,68 L16,68 C11.581722,68 8,64.418278 8,60 L8,16 C8,11.581722 11.581722,8 16,8 Z M17,11 C13.6862915,11 11,13.6862915 11,17 L11,59 C11,62.3137085 13.6862915,65 17,65 L59,65 C62.3137085,65 65,62.3137085 65,59 L65,17 C65,13.6862915 62.3137085,11 59,11 L17,11 Z" id="Combined-Shape" fill="url(#linearGradient-1)"></path>
                    </g>
                </g>
            </g>
        </g>
    </g>
</svg>