<?xml version="1.0" encoding="UTF-8"?>
<svg width="75px" height="75px" viewBox="0 0 75 75" version="1.1" xmlns="http://www.w3.org/2000/svg" xmlns:xlink="http://www.w3.org/1999/xlink">
    <!-- Generator: Sketch 52.2 (67145) - http://www.bohemiancoding.com/sketch -->
    <title>launch-icon</title>
    <desc>Created with Sketch.</desc>
    <defs>
        <linearGradient x1="5.26431075%" y1="0%" x2="109.437062%" y2="104.734959%" id="linearGradient-1">
            <stop stop-color="#2EBF91" offset="0%"></stop>
            <stop stop-color="#8360C3" offset="100%"></stop>
        </linearGradient>
    </defs>
    <g id="Page-1" stroke="none" stroke-width="1" fill="none" fill-rule="evenodd">
        <g id="Branding-Copy-11" transform="translate(-146.000000, -2236.000000)">
            <g id="Group-3" transform="translate(146.000000, 2078.000000)">
                <g id="Group-2">
                    <g id="launch-icon" transform="translate(0.000000, 155.000000)">
                        <rect id="Rectangle" fill="#FFFFFF" x="0" y="3" width="75" height="75" rx="10"></rect>
                        <path d="M52.9992669,36.8832682 C57.3643249,41.0919678 59.7863164,46.6810127 59.8,52.6760414 C59.8,55.7073878 59.1842394,58.6440045 57.9800855,61.4182279 L56.9538179,63.7864672 L55.9275504,61.4182279 C54.7233964,58.6575374 52.8761148,56.1945685 50.563592,54.2187802 C49.6057422,56.9388723 48.4152718,59.5777676 46.9511301,62.0948676 L46.6227244,62.6497123 L28.1772756,62.6497123 L27.8488699,62.0948676 C26.3710446,59.5507019 25.1805742,56.9118067 24.2500916,54.2187802 C21.9238852,56.1945685 20.0766035,58.6710702 18.8724496,61.4317607 L17.846182,63.8 L16.8199145,61.4317607 C15.6157605,58.6710702 15,55.7209206 15,52.6895742 C15,46.6404143 17.435675,41.0243038 21.8554673,36.8020713 C22.5396457,25.3533256 27.5888821,14.1752359 36.6200366,5.71723821 L37.3863164,5 L38.1525962,5.71723821 C47.1290165,14.1211047 52.3424556,25.1097354 52.9992669,36.8832682 Z M37.3863164,8.07194476 C34.2117288,11.1844879 31.5844837,14.6624166 29.518265,18.3839356 L45.3227855,18.3839356 C43.2291997,14.6624166 40.5745876,11.1844879 37.3863164,8.07194476 Z M23.4974954,51.9588032 C23.4701283,51.8505408 23.4427612,51.7422784 23.4017105,51.6204833 C23.2101405,50.9032451 23.0185706,50.1860069 22.8543677,49.455236 C22.7448992,48.981588 22.6491142,48.4944073 22.5533293,48.0072266 C22.5122786,47.7771693 22.4712279,47.5471116 22.4301771,47.3170541 C22.0196701,44.9623476 21.7596823,42.5805755 21.7186316,40.1852704 C18.8040318,43.7173303 17.2304215,48.0748906 17.2304215,52.7031071 C17.2304215,54.5841657 17.4904093,56.424626 18.0103848,58.2109551 C19.4197923,55.8156502 21.2807575,53.6910012 23.4974954,51.9588032 Z M45.309102,60.4573993 C46.6774588,58.0079631 47.7995114,55.4367318 48.7026269,52.7978367 L48.6889431,52.7978367 L48.9078803,52.0805983 C48.9078803,52.0670656 48.9215638,52.0535328 48.9215638,52.04 C49.2226023,51.0656386 49.4825901,50.0912773 49.7152107,49.1033832 C49.7425778,48.9951208 49.769945,48.8733256 49.7973121,48.7515305 C49.988882,47.8854315 50.153085,47.0193326 50.2899207,46.1532337 C50.3172877,45.9502416 50.3583384,45.7472498 50.3857056,45.5442577 C50.4951741,44.7458228 50.590959,43.9338551 50.6593769,43.13542 C50.6867441,42.9053625 50.7141112,42.6753049 50.7277948,42.4452474 C50.7962126,41.4438206 50.8372633,40.4288607 50.8372633,39.4274339 C50.8372633,38.750794 50.8098961,38.0876869 50.782529,37.4110472 L50.7688456,37.0591944 C50.4541235,31.2942232 48.9899818,25.732244 46.4858888,20.5897813 L28.3688455,20.5897813 C22.3207086,33.1076179 22.4301771,47.912497 29.4635308,60.4573993 L45.309102,60.4573993 Z M56.7622481,58.2109551 C57.2822236,56.4381588 57.5422113,54.5841657 57.5422113,52.7031071 C57.5422113,48.0748906 55.9686011,43.7308631 53.0676848,40.1988032 C53.0540012,40.5235903 53.0266341,40.8619103 53.0129505,41.2002301 C52.9992669,41.741542 52.9718998,42.2828539 52.930849,42.8241657 C52.903482,43.2030839 52.8624313,43.5820023 52.8213805,43.9609206 C52.7529628,44.596962 52.6845449,45.2465363 52.5887599,45.8825777 C52.5477092,46.1397008 52.5066586,46.383291 52.4656079,46.6268815 C52.3287722,47.3982509 52.1919365,48.1696202 52.0277337,48.9409897 C52.0003665,49.049252 51.9729994,49.1710472 51.9456322,49.2793096 C51.7540624,50.1589414 51.5351252,51.038573 51.2751375,51.9182048 C51.2614539,51.9182048 51.2614539,51.9317376 51.2614539,51.9452704 C53.4918754,53.6910012 55.3528406,55.8156502 56.7622481,58.2109551 Z M37.4,33 C41.2635437,33 44.4,36.1364563 44.4,40 C44.4,43.8635437 41.2635437,47 37.4,47 C33.5364563,47 30.4,43.8635437 30.4,40 C30.4,36.1364563 33.5364563,33 37.4,33 Z M37.4,44.6761711 C39.9804481,44.6761711 42.0619145,42.5804481 42.0619145,40.0142566 C42.0619145,37.4480652 39.9661915,35.3523422 37.4,35.3523422 C34.8338085,35.3523422 32.7380855,37.4480652 32.7380855,40.0142566 C32.7380855,42.5804481 34.8195519,44.6761711 37.4,44.6761711 Z M36,66.6 L37.75,66.6 L37.75,72.2 L36,72.2 L36,66.6 Z M44.4,69.4 L46.15,69.4 L46.15,75 L44.4,75 L44.4,69.4 Z M29,69.4 L30.75,69.4 L30.75,75 L29,75 L29,69.4 Z" id="Combined-Shape" fill="url(#linearGradient-1)" transform="translate(37.400000, 40.000000) rotate(15.000000) translate(-37.400000, -40.000000) "></path>
                    </g>
                </g>
            </g>
        </g>
    </g>
</svg>