<?xml version="1.0" encoding="UTF-8"?>
<svg width="75px" height="75px" viewBox="0 0 75 75" version="1.1" xmlns="http://www.w3.org/2000/svg" xmlns:xlink="http://www.w3.org/1999/xlink">
    <!-- Generator: Sketch 52.2 (67145) - http://www.bohemiancoding.com/sketch -->
    <title>theme-icon</title>
    <desc>Created with Sketch.</desc>
    <defs>
        <linearGradient x1="5.26431075%" y1="0%" x2="109.437062%" y2="104.734959%" id="linearGradient-1">
            <stop stop-color="#2EBF91" offset="0%"></stop>
            <stop stop-color="#8360C3" offset="100%"></stop>
        </linearGradient>
    </defs>
    <g id="Page-1" stroke="none" stroke-width="1" fill="none" fill-rule="evenodd">
        <g id="Branding-Copy-11" transform="translate(-264.000000, -2091.000000)">
            <g id="Group-3" transform="translate(146.000000, 2078.000000)">
                <g id="Group-2">
                    <g id="theme-icon" transform="translate(118.000000, 13.000000)">
                        <rect id="Rectangle" fill="#FFFFFF" x="0" y="0" width="75" height="75" rx="10"></rect>
                        <path d="M18.3078166,8 L56.6910379,8.00112878 C57.4080417,8 57.9977056,8.58357726 57.9977056,9.28793357 L58,33.6548241 C57.9977056,35.9722015 56.0772826,37.8617728 53.7220685,37.8640303 L42.1995306,37.8640303 L42.1972362,49.0005357 C42.8970319,49.0197249 43.4717821,49.5807266 43.4717821,50.2737952 L43.4740765,61.1224626 C43.4740765,64.3620502 40.7930559,67 37.5005744,67 C34.208093,67 31.5270723,64.3620502 31.5270723,61.1224626 L31.5270723,50.2737952 C31.5259251,49.5818554 32.1018226,49.0208537 32.8016183,49.0005357 L32.8016183,37.8617728 L21.276786,37.8617728 C18.9204247,37.8617728 17.0000017,35.9710727 17.0000017,33.6536953 L17.0000017,9.2868048 C16.9988545,8.58131971 17.5908128,8 18.3078166,8 Z M27.5107038,10.5747384 L27.5084094,17.792133 L27.5084094,17.7943906 C27.5026734,18.4908454 26.9210399,19.0665213 26.2120665,19.0721651 C25.4950627,19.077809 24.8996628,18.4987469 24.8939267,17.7943906 L24.8939267,10.5769959 L19.6121899,10.5769959 L19.6121899,28.3450611 L55.3786341,28.3450611 L55.3786341,10.5769959 L45.6021438,10.5769959 L45.6021438,19.7618474 C45.591819,20.4526584 45.0170687,21.0215615 44.3138314,21.0317205 L44.311537,21.0317205 C43.5945332,21.0407507 42.997986,20.4662037 42.9876611,19.7618474 L42.9876611,19.758461 L42.9853667,10.5769959 L36.0573892,10.5769959 L36.0573892,22.0058543 C36.0482115,22.7102106 35.44937,23.2847577 34.7335134,23.2757275 C34.0165095,23.2666973 33.4325817,22.6752186 33.4429065,21.9708623 L33.4406121,10.5747384 L27.5107038,10.5747384 Z M19.6156315,30.9175419 L19.6144843,33.6548241 C19.6144843,34.5634889 20.3521379,35.2904207 21.2744915,35.2904207 L53.7186269,35.2904207 C54.6421278,35.2892919 55.3797813,34.5634889 55.3809285,33.6548241 L55.3809285,30.9175419 L19.6156315,30.9175419 Z M35.4149538,37.8640303 L35.4149538,48.9892479 L39.5793119,48.9892479 L39.5793119,37.8640303 L35.4149538,37.8640303 Z M34.1404078,51.5639863 L34.1404078,61.125849 C34.1404078,62.9555951 35.6375118,64.4297767 37.4971328,64.428648 L37.5086049,64.428648 C39.3636371,64.4207465 40.8538578,62.9522088 40.8561522,61.125849 L40.8561522,51.5639863 L34.1404078,51.5639863 Z" id="Combined-Shape" fill="url(#linearGradient-1)"></path>
                    </g>
                </g>
            </g>
        </g>
    </g>
</svg>