<?xml version="1.0" encoding="UTF-8"?>
<svg width="75px" height="75px" viewBox="0 0 75 75" version="1.1" xmlns="http://www.w3.org/2000/svg" xmlns:xlink="http://www.w3.org/1999/xlink">
    <!-- Generator: Sketch 52.2 (67145) - http://www.bohemiancoding.com/sketch -->
    <title>time-icon</title>
    <desc>Created with Sketch.</desc>
    <defs>
        <linearGradient x1="5.26431075%" y1="0%" x2="109.437062%" y2="104.734959%" id="linearGradient-1">
            <stop stop-color="#2EBF91" offset="0%"></stop>
            <stop stop-color="#8360C3" offset="100%"></stop>
        </linearGradient>
    </defs>
    <g id="Page-1" stroke="none" stroke-width="1" fill="none" fill-rule="evenodd">
        <g id="Branding-Copy-11" transform="translate(-368.000000, -2091.000000)">
            <g id="Group-3" transform="translate(146.000000, 2078.000000)">
                <g id="Group-2">
                    <g id="time-icon" transform="translate(222.000000, 13.000000)">
                        <rect id="Rectangle" fill="#FFFFFF" x="0" y="0" width="75" height="75" rx="10"></rect>
                        <path d="M37.9978917,13.7158723 C51.3936037,13.7158723 62.284315,24.6065273 62.2843069,38.0021597 C62.2842988,51.3977922 51.3935929,62.2831828 37.9978917,62.2831828 C24.6021897,62.2831828 13.7167565,51.3977922 13.7167465,38.0021597 C13.7167406,24.6065273 24.6021786,13.7158723 37.9978917,13.7158723 Z M37.9978917,16.573694 C26.1462936,16.573694 16.5693144,26.1506186 16.5693198,38.0021597 C16.5693285,49.8537008 26.1463035,59.4306254 37.9978917,59.4306254 C49.8494777,59.4306254 59.4264549,49.8537008 59.426463,38.0021597 C59.4264684,26.1506186 49.8494885,16.573694 37.9978917,16.573694 Z M38.0000001,8.00014798 C54.5516203,8.00014798 68,21.4484506 68,38 C68,54.5515494 54.5516203,67.999852 38.0000001,67.999852 C37.4847325,68.0072528 37.0054067,67.736601 36.7456127,67.2915609 C36.4858188,66.8465208 36.4858188,66.2960634 36.7456127,65.8510233 C37.0054067,65.4059832 37.4847325,65.1353315 38.0000001,65.1427323 C53.0075078,65.1427323 65.1428581,53.007431 65.1428554,38 C65.1428581,22.992569 53.0075078,10.8572677 38.0000001,10.8572677 C37.4847325,10.8646685 37.0054067,10.5940168 36.7456127,10.1489767 C36.4858188,9.70393655 36.4858188,9.15347918 36.7456127,8.70843907 C37.0054067,8.26339896 37.4847325,7.99274719 38.0000001,8.00014798 Z M10.857143,37.999946 C10.8571331,38.7889133 10.2175428,39.4284924 9.42857151,39.4284924 C8.63960025,39.4284924 8.0000099,38.7889133 8,37.999946 C7.99999759,37.6210656 8.15050631,37.2577024 8.4184157,36.9897926 C8.68632509,36.7218829 9.04968922,36.5713726 9.42857151,36.5713726 C9.80745381,36.5713726 10.1708179,36.7218829 10.4387273,36.9897926 C10.7066367,37.2577024 10.8571454,37.6210656 10.857143,37.999946 Z M30.976789,11.779632 C30.6108168,11.8776938 30.2208787,11.8263573 29.8927575,11.6369161 C29.5646362,11.4474749 29.32521,11.1354472 29.2271503,10.769476 C29.0229591,10.0073892 29.4752203,9.2240656 30.2373084,9.01986628 C30.9993955,8.81566763 31.7827272,9.26791626 31.9869375,10.0299969 C32.0850016,10.3959664 32.0336673,10.7859023 31.8442276,11.1140228 C31.6547879,11.4421433 31.3427607,11.6815702 30.976789,11.779632 Z M24.4298235,14.4914672 C23.7465539,14.8859569 22.8728559,14.6518602 22.4783598,13.9685964 C22.2889159,13.6404762 22.2375781,13.2505386 22.3356405,12.8845667 C22.4337028,12.5185949 22.6731324,12.2065678 23.0012566,12.0171289 C23.3293784,11.8276858 23.7193178,11.7763483 24.0852915,11.8744102 C24.4512652,11.972472 24.7632938,12.2119004 24.9527337,12.540023 C25.3472124,13.2232968 25.1130981,14.0969861 24.4298235,14.4914672 Z M18.8078357,18.8053431 C18.2499499,19.3632332 17.3454335,19.3632417 16.787537,18.8053622 C16.519624,18.5374538 16.3691118,18.1740901 16.3691118,17.7952082 C16.3691118,17.4163262 16.519624,17.0529626 16.787537,16.7850543 C17.3454333,16.2271747 18.2499498,16.2271833 18.8078357,16.7850734 C19.3657106,17.3429596 19.3657106,18.2474569 18.8078357,18.8053431 Z M14.4939332,24.427321 C14.0994502,25.1105922 13.2257566,25.3447054 12.5424794,24.9502286 C12.2143552,24.7607897 11.9749256,24.4487626 11.8768633,24.0827907 C11.7788009,23.7168189 11.8301387,23.3268813 12.0195827,22.9987611 C12.2090225,22.6706385 12.5210511,22.4312102 12.8870248,22.3331483 C13.2529985,22.2350864 13.642938,22.2864239 13.9710598,22.475867 C14.654327,22.870361 14.8884248,23.7440548 14.4939332,24.427321 Z M11.7821091,30.9742698 C11.6840496,31.3402404 11.4446238,31.6522678 11.1165032,31.8417091 C10.7883825,32.0311504 10.398445,32.0824874 10.032473,31.9844265 C9.66650059,31.8863652 9.35447269,31.6469384 9.16503241,31.3188176 C8.97559213,30.9906969 8.92425759,30.6007605 9.02232189,30.2347906 C9.12038155,29.8688195 9.35980774,29.5567918 9.687929,29.3673506 C10.0160503,29.1779094 10.4059883,29.1265729 10.7719606,29.2246346 C11.1379324,29.3226965 11.4499595,29.5621234 11.6393992,29.8902439 C11.828839,30.2183644 11.8801733,30.6083003 11.7821091,30.9742698 Z M11.7820812,45.0256086 C11.8801455,45.3915785 11.828811,45.7815149 11.6393707,46.1096356 C11.4499304,46.4377563 11.1379025,46.6771831 10.7719301,46.7752444 C10.4059581,46.8733053 10.0160206,46.8219683 9.68789997,46.6325271 C9.35977929,46.4430858 9.12035357,46.1310584 9.02229403,45.7650877 C8.81810302,45.003002 9.27036276,44.2196793 10.0324495,44.0154787 C10.7945374,43.8112784 11.5778708,44.263527 11.7820812,45.0256086 Z M14.4939026,51.5725721 C14.8883761,52.2558366 14.6542738,53.129514 13.9710158,53.5240028 C13.2877461,53.9184924 12.414048,53.6843958 12.0195521,53.001132 C11.8301082,52.6730118 11.7787704,52.2830742 11.8768327,51.9171024 C11.9748951,51.5511305 12.2143247,51.2391034 12.5424489,51.0496645 C13.225726,50.6551877 14.0994197,50.8893009 14.4939026,51.5725721 Z M18.8078166,57.1945329 C19.365699,57.7524264 19.3656904,58.6569385 18.8077975,59.2148216 C18.2499116,59.7727117 17.3453952,59.7727203 16.7874988,59.2148407 C16.5195858,58.9469324 16.3690736,58.5835688 16.3690736,58.2046868 C16.3690736,57.8258049 16.5195858,57.4624412 16.7874988,57.1945329 C17.0554085,56.9266212 17.418774,56.7761097 17.7976578,56.7761097 C18.1765416,56.7761097 18.539907,56.9266212 18.8078166,57.1945329 Z M24.4298172,61.5084358 C25.1130752,61.9029245 25.3471774,62.7766018 24.952704,63.4598665 C24.5582209,64.1431377 23.6845273,64.3772509 23.0012502,63.9827741 C22.673126,63.7933352 22.4336965,63.4813081 22.3356341,63.1153363 C22.2375718,62.7493644 22.2889095,62.3594268 22.4783535,62.0313066 C22.8728495,61.3480428 23.7465476,61.1139461 24.4298172,61.5084358 Z M30.9767778,64.2202358 C31.3427495,64.3182977 31.6547766,64.5577246 31.8442164,64.8858451 C32.0336561,65.2139655 32.0849904,65.6039015 31.9869262,65.969871 C31.8888667,66.3358416 31.6494409,66.6478691 31.3213202,66.8373104 C30.9931996,67.0267516 30.6032621,67.0780886 30.2372901,66.9800277 C29.8713178,66.8819664 29.5592899,66.6425397 29.3698496,66.3144189 C29.1804093,65.9862982 29.1290748,65.5963618 29.227139,65.2303919 C29.3251988,64.8644207 29.564625,64.552393 29.8927462,64.3629518 C30.2208675,64.1735106 30.6108055,64.1221741 30.9767778,64.2202358 Z M37.9767992,19.4104314 C38.3621921,19.40466 38.7335676,19.5548473 39.0066072,19.8268943 C39.2796468,20.0989414 39.4311847,20.4697663 39.426815,20.8551757 L39.426815,37.4063471 L47.5838021,45.5632833 C47.9446265,45.9249521 48.0850716,46.4516559 47.9522249,46.9449603 C47.8193783,47.4382647 47.4334262,47.8232114 46.9397752,47.9547727 C46.4461242,48.0863339 45.9197852,47.9445188 45.5590552,47.5827559 L36.9907907,39.0092639 C36.7223907,38.7426503 36.5706921,38.3804687 36.5689684,38.0021597 L36.5689684,20.8551757 C36.5600481,20.0679702 37.1896227,19.4218881 37.9767992,19.4104314 Z" id="Combined-Shape" fill="url(#linearGradient-1)"></path>
                    </g>
                </g>
            </g>
        </g>
    </g>
</svg>